<?xml version="1.0" encoding="UTF-8" standalone="no"?><!DOCTYPE svg PUBLIC "-//W3C//DTD SVG 1.1//EN" "http://www.w3.org/Graphics/SVG/1.1/DTD/svg11.dtd"><svg width="100%" height="100%" viewBox="0 0 4167 1250" version="1.1" xmlns="http://www.w3.org/2000/svg" xmlns:xlink="http://www.w3.org/1999/xlink" xml:space="preserve" xmlns:serif="http://www.serif.com/" style="fill-rule:evenodd;clip-rule:evenodd;stroke-linejoin:round;stroke-miterlimit:2;"><rect id="Mono_White_Text" x="0" y="0" width="4166.67" height="1250" style="fill:none;"/><g transform="matrix(496.558,0,0,496.558,3547.13,807.734)"></g><text x="1617.01px" y="807.734px" style="font-family:'Avenir-Medium', 'Avenir';font-weight:500;font-size:496.558px;fill:#fff;">Odyssey</text><path d="M1000,250c206.968,0 375,168.032 375,375c-0,206.968 -168.032,375 -375,375c-206.968,0 -375,-168.032 -375,-375c-0,-206.968 168.032,-375 375,-375Zm173.394,677.231c-1.429,1.481 -1.545,3.788 -0.274,5.406c1.272,1.618 3.542,2.049 5.319,1.01c47.558,-30.336 170.157,-123.528 172.863,-280.051c0.32,-18.518 0.281,-52.23 -14.075,-51.104c-34.989,2.744 -52.318,52.553 -65.664,88.803c-18.957,51.492 -66.361,184.663 -98.169,235.936Zm30.258,-579.935c1.807,0.287 3.583,-0.667 4.343,-2.331c0.76,-1.665 0.316,-3.632 -1.084,-4.809c-38.17,-28.471 -178.86,-115.436 -372.581,-25.207c-92.83,43.237 -132.48,123.344 -141.109,189.293c-12.712,97.156 62.727,133.738 100.82,130.729c137.239,-10.84 312.896,-281.813 409.611,-287.675Zm-539.012,184.593c-0.465,-1.685 -1.934,-2.9 -3.677,-3.04c-1.742,-0.139 -3.386,0.825 -4.114,2.415c-4.3,14.495 -9.958,43.586 -7.998,93.736c2.204,56.399 28.598,105.429 90.109,137.129c57.692,29.732 188.501,40.84 261.04,19.083c144.327,-43.287 307.426,-143.404 307.927,-284.638c0.177,-49.906 -33.419,-124.08 -83.324,-124.389c-103.018,-0.64 -301.136,287.746 -437.383,286.776c-78.248,-0.557 -112.604,-93.115 -122.58,-127.072Zm335.36,268.31c-120.718,28.95 -253.621,-16.037 -270.89,23.213c-17.269,39.25 122.925,156.176 270.89,156.176c113.784,-0 165.866,-99.458 192.487,-151.07c21.122,-40.95 56.312,-121.295 24.831,-121.295c-43.103,0 -76.521,59.212 -217.318,92.976Z" style="fill:#fff;"/></svg>