<?xml version="1.0" encoding="UTF-8" standalone="no"?><!DOCTYPE svg PUBLIC "-//W3C//DTD SVG 1.1//EN" "http://www.w3.org/Graphics/SVG/1.1/DTD/svg11.dtd"><svg width="100%" height="100%" viewBox="0 0 4171 4167" version="1.1" xmlns="http://www.w3.org/2000/svg" xmlns:xlink="http://www.w3.org/1999/xlink" xml:space="preserve" xmlns:serif="http://www.serif.com/" style="fill-rule:evenodd;clip-rule:evenodd;stroke-linejoin:round;stroke-miterlimit:2;"><rect id="Mono_White" x="3.991" y="0" width="4166.67" height="4166.67" style="fill:none;"/><path d="M2087.32,416.667c919.858,-0 1666.67,746.808 1666.67,1666.67c0,919.859 -746.808,1666.67 -1666.67,1666.67c-919.859,0 -1666.67,-746.808 -1666.67,-1666.67c0,-919.858 746.808,-1666.67 1666.67,-1666.67Zm710.4,3087.13c0,0 836.015,-429.826 850.943,-1293.37c1.423,-82.302 1.247,-232.133 -62.556,-227.13c-155.506,12.195 -232.524,233.567 -291.839,394.679c-97.37,264.478 -363.588,1013.77 -496.548,1125.82Zm255.457,-2649.73c-0,-0 -687.372,-621.388 -1702.17,-148.73c-246.901,114.998 -386.066,685.566 -412,883.775c-56.496,431.803 155.712,544.644 232.942,538.544c639.906,-50.542 1467.75,-1373.6 1881.23,-1273.59Zm-2487.97,874.112c0,-0 -43.257,236.172 -38.55,355.162c23.827,602.288 624.434,706.042 1196.92,727.186c737.01,27.219 1730.08,-670.263 1732.3,-1297.97c0.787,-221.803 -148.529,-551.464 -370.33,-552.841c-457.855,-2.842 -1391.21,1403.15 -1993.66,1341.88c-424.7,-43.188 -526.683,-573.423 -526.683,-573.423Zm1231.06,1178.75c-270.587,0 -771.809,60.945 -771.809,251.525c-0,190.581 557.154,500.838 1062.86,500.838c505.705,0 737.181,-442.034 855.498,-671.421c93.876,-182.001 250.277,-539.089 110.359,-539.089c-191.567,0 -571.478,458.147 -1256.91,458.147Z" style="fill:#fff;"/></svg>