<?xml version="1.0" encoding="UTF-8" standalone="no"?><!DOCTYPE svg PUBLIC "-//W3C//DTD SVG 1.1//EN" "http://www.w3.org/Graphics/SVG/1.1/DTD/svg11.dtd"><svg width="100%" height="100%" viewBox="0 0 4167 1250" version="1.1" xmlns="http://www.w3.org/2000/svg" xmlns:xlink="http://www.w3.org/1999/xlink" xml:space="preserve" xmlns:serif="http://www.serif.com/" style="fill-rule:evenodd;clip-rule:evenodd;stroke-linejoin:round;stroke-miterlimit:2;"><rect id="Mono_Black_Text" x="0" y="-0" width="4166.67" height="1250" style="fill:none;"/><g transform="matrix(496.558,0,0,496.558,3547.13,807.734)"></g><text x="1617.01px" y="807.734px" style="font-family:'Avenir-Medium', 'Avenir';font-weight:500;font-size:496.558px;">Odyssey</text><path d="M1000,250c206.968,0 375,168.032 375,375c-0,206.968 -168.032,375 -375,375c-206.968,0 -375,-168.032 -375,-375c0,-206.968 168.032,-375 375,-375Zm159.84,694.603c0,0 188.103,-96.71 191.462,-291.007c0.32,-18.518 0.281,-52.23 -14.075,-51.104c-34.989,2.744 -52.318,52.553 -65.664,88.803c-21.908,59.507 -81.807,228.098 -111.723,253.308Zm57.478,-596.19c-0,0 -154.659,-139.812 -382.988,-33.464c-55.553,25.875 -86.865,154.252 -92.7,198.849c-12.712,97.156 35.035,122.545 52.411,121.173c143.979,-11.372 330.245,-309.06 423.277,-286.558Zm-559.793,196.675c-0,0 -9.733,53.139 -8.674,79.912c5.361,135.515 140.497,158.859 269.307,163.617c165.828,6.124 389.268,-150.809 389.769,-292.043c0.177,-49.906 -33.419,-124.08 -83.324,-124.389c-103.018,-0.64 -313.024,315.708 -448.575,301.924c-95.557,-9.718 -118.503,-129.021 -118.503,-129.021Zm276.989,265.218c-60.882,0 -173.658,13.713 -173.658,56.593c0,42.881 125.36,112.689 239.144,112.689c113.784,-0 165.866,-99.458 192.487,-151.07c21.122,-40.95 56.312,-121.295 24.831,-121.295c-43.103,0 -128.583,103.083 -282.804,103.083Z"/></svg>