<?xml version="1.0" encoding="UTF-8" standalone="no"?><!DOCTYPE svg PUBLIC "-//W3C//DTD SVG 1.1//EN" "http://www.w3.org/Graphics/SVG/1.1/DTD/svg11.dtd"><svg width="100%" height="100%" viewBox="0 0 4171 4167" version="1.1" xmlns="http://www.w3.org/2000/svg" xmlns:xlink="http://www.w3.org/1999/xlink" xml:space="preserve" xmlns:serif="http://www.serif.com/" style="fill-rule:evenodd;clip-rule:evenodd;stroke-linejoin:round;stroke-miterlimit:2;"><rect id="Mono_White" x="3.991" y="0" width="4166.67" height="4166.67" style="fill:none;"/><path d="M2087.32,416.667c919.858,-0 1666.67,746.808 1666.67,1666.67c0,919.859 -746.808,1666.67 -1666.67,1666.67c-919.859,0 -1666.67,-746.808 -1666.67,-1666.67c0,-919.858 746.808,-1666.67 1666.67,-1666.67Zm730.413,3066.74c-1.552,1.406 -1.813,3.749 -0.607,5.461c1.205,1.713 3.499,2.258 5.346,1.271c138.608,-79.394 812.799,-505.027 826.191,-1279.71c1.423,-82.302 1.247,-232.133 -62.556,-227.13c-155.506,12.195 -232.524,233.567 -291.839,394.679c-92.701,251.796 -338.446,943.025 -476.535,1105.43Zm219.777,-2632.43c1.841,0.408 3.725,-0.48 4.582,-2.16c0.857,-1.679 0.47,-3.726 -0.941,-4.977c-95.56,-78.827 -753.335,-574.842 -1690.14,-138.509c-412.577,192.165 -588.8,548.195 -627.15,841.302c-56.496,431.803 278.787,594.389 448.092,581.017c631.923,-49.911 1447.13,-1340.79 1865.56,-1276.67Zm-2452.45,775.239c-0.384,-1.684 -1.769,-2.956 -3.479,-3.197c-1.711,-0.24 -3.393,0.6 -4.227,2.112c-15.663,35.531 -62.084,166.971 -50.702,458.204c9.797,250.661 127.104,468.574 400.488,609.464c256.406,132.14 837.78,181.509 1160.18,84.814c641.454,-192.39 1366.34,-637.355 1368.56,-1265.06c0.787,-221.803 -148.529,-551.464 -370.33,-552.841c-457.855,-2.842 -1338.38,1278.87 -1943.92,1274.56c-391.576,-2.788 -535.836,-523.964 -556.568,-608.056Zm1502.26,1235.78c-536.525,128.662 -1127.21,-71.277 -1203.96,103.166c-76.751,174.443 546.333,694.115 1203.96,694.115c505.705,0 737.181,-442.034 855.498,-671.421c93.876,-182.001 250.277,-539.089 110.359,-539.089c-191.567,0 -340.091,263.165 -965.857,413.229Z" style="fill:#fff;"/></svg>